<svg xmlns="http://www.w3.org/2000/svg" viewBox="0 0 500 1000" height="140"><g transform="translate(0,750) scale(1,-1)"><path d="M113 254C113 351 158 388 253 388C359 388 393 349 393 253V-1H407V253C407 407 394 506 256 506C184 506 106 466 106 254ZM99 750V254V0H113V254V750ZM316 -1H484L477 115C474 159 407 116 407 159H393C393 116 326 159 323 115ZM22 -1H190L183 115C180 159 113 116 113 159H99C99 116 32 159 29 115ZM190 772H22L29 656C32 612 99 655 99 612H113C113 655 180 612 183 656Z" fill="#111"/></g></svg>