<svg xmlns="http://www.w3.org/2000/svg" viewBox="0 0 523 1000" height="140"><g transform="translate(0,750) scale(1,-1)"><path d="M365 254C365 64 371 -4 431 -4C480 -4 501 42 510 72L474 142C462 121 443 104 421 104C384 104 372 152 372 254ZM216 -6C350 -6 372 102 372 254C372 344 381 505 250 505C176 505 96 454 51 403L116 342C147 368 201 390 250 390C330 390 365 332 365 254C365 148 300 110 219 110C180 110 72 119 72 164C72 209 180 216 227 216C295 216 393 201 449 185L469 279C375 305 274 313 227 313C117 313 60 268 60 164C60 85 93 -6 216 -6Z" fill="#111"/></g></svg>