<svg xmlns="http://www.w3.org/2000/svg" viewBox="0 0 500 1000" height="140"><g transform="translate(0,750) scale(1,-1)"><path d="M113 254C113 354 189 391 250 391C346 391 393 353 393 253V-1H407V253C407 428 392 506 253 506C130 506 106 381 106 254ZM99 750V254V0H113V254V750ZM43 0H169L183 116C183 159 113 116 113 159H99C99 116 29 159 29 116ZM337 -1H463L477 115C477 158 407 115 407 158H393C393 115 323 158 323 115ZM169 750H42L28 634C28 591 98 634 98 591H113C113 634 183 591 183 634ZM250 169V553V552" fill="#111"/></g></svg>