<svg xmlns="http://www.w3.org/2000/svg" viewBox="0 0 489 1000" height="140"><g transform="translate(0,750) scale(1,-1)"><path d="M338 254C338 64 352 -4 404 -4C453 -4 474 42 483 72L447 142C435 121 416 104 394 104C357 104 345 152 345 254ZM189 -6C323 -6 345 102 345 254C345 344 367 505 223 505C149 505 69 454 24 403L89 342C120 368 174 390 223 390C314 390 338 332 338 254C338 148 285 110 192 110C124 110 45 119 45 164C45 213 121 214 200 214H442V311H200C90 311 33 247 33 164C33 85 66 -6 189 -6Z" fill="#111"/></g></svg>