<svg xmlns="http://www.w3.org/2000/svg" viewBox="0 0 500 1000" height="140"><g transform="translate(0,750) scale(1,-1)"><path d="M407 156V500H393V246V156ZM190 500H22L29 384C32 340 99 383 99 340H113C113 383 180 340 183 384ZM484 500H316L323 384C326 340 393 383 393 340H407C407 383 474 340 477 384ZM228 -250C339 -250 407 -152 407 151V193H393V151C393 -93 301 -134 236 -134C187 -134 135 -111 113 -94L49 -163C97 -224 170 -250 228 -250ZM393 246C393 149 348 112 253 112C147 112 113 151 113 247V500H99V247C99 93 112 -6 250 -6C322 -6 400 34 400 246Z" fill="#111"/></g></svg>