<svg xmlns="http://www.w3.org/2000/svg" viewBox="0 0 500 1000" height="140"><g transform="translate(0,750) scale(1,-1)"><path d="M113 254C113 351 158 388 253 388C359 388 393 349 393 253V91H407V253C407 407 394 506 256 506C184 506 106 466 106 254ZM99 750V254V92H113V254V750ZM317 19C317 9 401 -28 401 15C401 -28 485 9 485 19L478 199C467 188 408 162 408 195H394C394 162 335 188 324 199ZM22 19C22 9 106 -28 106 15C106 -28 190 9 190 19L183 199C172 188 113 162 113 195H99C99 162 40 188 29 199ZM190 754C190 764 106 801 106 758C106 801 22 764 22 754L29 574C40 585 99 611 99 578H113C113 611 172 585 183 574Z" fill="#111"/></g></svg>