<svg xmlns="http://www.w3.org/2000/svg" viewBox="0 0 500 1000" height="140"><g transform="translate(0,750) scale(1,-1)"><path d="M113 254C113 351 158 388 253 388C359 388 393 349 393 253V91H407V253C407 407 394 506 256 506C184 506 106 466 106 254ZM99 644V254V92H113V254V644ZM45 6C45 -4 113 -24 113 24V195L99 206C99 173 47 189 47 199ZM339 6C339 -4 407 -24 407 24V195L393 206C393 173 341 189 341 199ZM461 6 459 199C459 189 407 173 407 206L393 195V24C393 -24 461 -4 461 6ZM167 6 165 199C165 189 113 173 113 206L99 195V24C99 -24 167 -4 167 6ZM45 742 47 549C47 559 99 575 99 542L113 553V724C113 772 45 752 45 742Z" fill="#111"/></g></svg>