<svg xmlns="http://www.w3.org/2000/svg" viewBox="0 0 523 1000" height="140"><g transform="translate(0,750) scale(1,-1)"><path d="M365 258C365 68 366 -6 441 -6C478 -6 500 42 510 72L474 142C453 121 445 104 421 104C388 104 372 156 372 258ZM216 -6C361 -6 372 161 372 258C372 362 372 505 241 505C157 505 87 454 42 403L107 342C138 368 189 390 241 390C321 390 365 344 365 258C365 152 312 110 219 110C128 110 81 119 81 164C81 208 131 216 227 216C299 216 406 199 450 183L463 286C382 304 314 313 227 313C132 313 70 245 70 164C70 97 93 -6 216 -6Z" fill="#111"/></g></svg>